<mxfile host="app.diagrams.net" modified="2023-09-26T12:37:55.409Z" agent="Mozilla/5.0 (Windows NT 10.0; Win64; x64) AppleWebKit/537.36 (KHTML, like Gecko) Chrome/116.0.0.0 Safari/537.36 OPR/102.0.0.0" etag="pRnbwlkzSWh45B94aWfe" version="21.7.2" type="device">
  <diagram name="Страница — 1" id="3NBNARoXMprRHPRQgORp">
    <mxGraphModel dx="1050" dy="646" grid="1" gridSize="10" guides="1" tooltips="1" connect="1" arrows="1" fold="1" page="1" pageScale="1" pageWidth="827" pageHeight="1169" math="0" shadow="0">
      <root>
        <mxCell id="0" />
        <mxCell id="1" parent="0" />
        <mxCell id="m7PIwRA5SWsUjtvSoGQX-1" value="Работник ОК&lt;br&gt;" style="shape=umlActor;verticalLabelPosition=bottom;verticalAlign=top;html=1;outlineConnect=0;" vertex="1" parent="1">
          <mxGeometry x="50" y="30" width="30" height="60" as="geometry" />
        </mxCell>
        <mxCell id="m7PIwRA5SWsUjtvSoGQX-2" value="Авторизация" style="rounded=1;whiteSpace=wrap;html=1;" vertex="1" parent="1">
          <mxGeometry x="170" y="10" width="90" height="60" as="geometry" />
        </mxCell>
        <mxCell id="m7PIwRA5SWsUjtvSoGQX-4" value="" style="endArrow=none;dashed=1;html=1;rounded=0;" edge="1" parent="1" target="m7PIwRA5SWsUjtvSoGQX-1">
          <mxGeometry width="50" height="50" relative="1" as="geometry">
            <mxPoint x="65" y="400" as="sourcePoint" />
            <mxPoint x="90" y="200" as="targetPoint" />
          </mxGeometry>
        </mxCell>
        <mxCell id="m7PIwRA5SWsUjtvSoGQX-5" value="" style="endArrow=none;dashed=1;html=1;rounded=0;" edge="1" parent="1" target="m7PIwRA5SWsUjtvSoGQX-2">
          <mxGeometry width="50" height="50" relative="1" as="geometry">
            <mxPoint x="215" y="400" as="sourcePoint" />
            <mxPoint x="260" y="240" as="targetPoint" />
          </mxGeometry>
        </mxCell>
        <mxCell id="m7PIwRA5SWsUjtvSoGQX-6" value="" style="endArrow=classic;html=1;rounded=0;" edge="1" parent="1">
          <mxGeometry width="50" height="50" relative="1" as="geometry">
            <mxPoint x="210" y="140" as="sourcePoint" />
            <mxPoint x="70" y="140" as="targetPoint" />
          </mxGeometry>
        </mxCell>
        <mxCell id="m7PIwRA5SWsUjtvSoGQX-7" value="Окно авторизации" style="edgeLabel;html=1;align=center;verticalAlign=middle;resizable=0;points=[];" vertex="1" connectable="0" parent="m7PIwRA5SWsUjtvSoGQX-6">
          <mxGeometry x="-0.2" y="1" relative="1" as="geometry">
            <mxPoint x="-14" y="-11" as="offset" />
          </mxGeometry>
        </mxCell>
        <mxCell id="m7PIwRA5SWsUjtvSoGQX-8" value="" style="endArrow=classic;html=1;rounded=0;" edge="1" parent="1">
          <mxGeometry width="50" height="50" relative="1" as="geometry">
            <mxPoint x="70" y="170" as="sourcePoint" />
            <mxPoint x="210" y="170" as="targetPoint" />
          </mxGeometry>
        </mxCell>
        <mxCell id="m7PIwRA5SWsUjtvSoGQX-9" value="Ввод логина и пароля" style="edgeLabel;html=1;align=center;verticalAlign=middle;resizable=0;points=[];" vertex="1" connectable="0" parent="m7PIwRA5SWsUjtvSoGQX-8">
          <mxGeometry x="0.0143" relative="1" as="geometry">
            <mxPoint y="-10" as="offset" />
          </mxGeometry>
        </mxCell>
        <mxCell id="m7PIwRA5SWsUjtvSoGQX-10" value="БД пользователей" style="rounded=1;whiteSpace=wrap;html=1;" vertex="1" parent="1">
          <mxGeometry x="350" y="10" width="90" height="60" as="geometry" />
        </mxCell>
        <mxCell id="m7PIwRA5SWsUjtvSoGQX-11" value="" style="endArrow=none;dashed=1;html=1;rounded=0;" edge="1" parent="1" target="m7PIwRA5SWsUjtvSoGQX-10">
          <mxGeometry width="50" height="50" relative="1" as="geometry">
            <mxPoint x="395" y="400" as="sourcePoint" />
            <mxPoint x="430" y="240" as="targetPoint" />
          </mxGeometry>
        </mxCell>
        <mxCell id="m7PIwRA5SWsUjtvSoGQX-12" value="" style="endArrow=classic;html=1;rounded=0;" edge="1" parent="1">
          <mxGeometry width="50" height="50" relative="1" as="geometry">
            <mxPoint x="220" y="190" as="sourcePoint" />
            <mxPoint x="390" y="190" as="targetPoint" />
          </mxGeometry>
        </mxCell>
        <mxCell id="m7PIwRA5SWsUjtvSoGQX-15" value="&#xa;&lt;span style=&quot;color: rgb(0, 0, 0); font-family: Helvetica; font-size: 11px; font-style: normal; font-variant-ligatures: normal; font-variant-caps: normal; font-weight: 400; letter-spacing: normal; orphans: 2; text-align: center; text-indent: 0px; text-transform: none; widows: 2; word-spacing: 0px; -webkit-text-stroke-width: 0px; background-color: rgb(255, 255, 255); text-decoration-thickness: initial; text-decoration-style: initial; text-decoration-color: initial; float: none; display: inline !important;&quot;&gt;Подтверждение логина, пароля и роли пользователя&lt;/span&gt;&#xa;&#xa;" style="text;html=1;strokeColor=none;fillColor=none;align=center;verticalAlign=middle;whiteSpace=wrap;rounded=0;" vertex="1" parent="1">
          <mxGeometry x="220" y="160" width="160" height="30" as="geometry" />
        </mxCell>
        <mxCell id="m7PIwRA5SWsUjtvSoGQX-17" value="АРМ РОК" style="rounded=1;whiteSpace=wrap;html=1;" vertex="1" parent="1">
          <mxGeometry x="530" y="10" width="90" height="60" as="geometry" />
        </mxCell>
        <mxCell id="m7PIwRA5SWsUjtvSoGQX-18" value="" style="endArrow=none;dashed=1;html=1;rounded=0;" edge="1" parent="1" target="m7PIwRA5SWsUjtvSoGQX-17">
          <mxGeometry width="50" height="50" relative="1" as="geometry">
            <mxPoint x="575" y="400" as="sourcePoint" />
            <mxPoint x="560" y="210" as="targetPoint" />
          </mxGeometry>
        </mxCell>
        <mxCell id="m7PIwRA5SWsUjtvSoGQX-19" value="" style="endArrow=classic;html=1;rounded=0;" edge="1" parent="1">
          <mxGeometry width="50" height="50" relative="1" as="geometry">
            <mxPoint x="400" y="240" as="sourcePoint" />
            <mxPoint x="570" y="240" as="targetPoint" />
          </mxGeometry>
        </mxCell>
        <mxCell id="m7PIwRA5SWsUjtvSoGQX-20" value="Данные верны, &lt;br&gt;успешная авторизация" style="edgeLabel;html=1;align=center;verticalAlign=middle;resizable=0;points=[];" vertex="1" connectable="0" parent="m7PIwRA5SWsUjtvSoGQX-19">
          <mxGeometry x="0.0982" y="1" relative="1" as="geometry">
            <mxPoint x="-14" y="-19" as="offset" />
          </mxGeometry>
        </mxCell>
        <mxCell id="m7PIwRA5SWsUjtvSoGQX-22" value="" style="rounded=1;whiteSpace=wrap;html=1;fillColor=none;" vertex="1" parent="1">
          <mxGeometry x="30" y="200" width="590" height="170" as="geometry" />
        </mxCell>
        <mxCell id="m7PIwRA5SWsUjtvSoGQX-23" value="" style="endArrow=classic;html=1;rounded=0;" edge="1" parent="1">
          <mxGeometry width="50" height="50" relative="1" as="geometry">
            <mxPoint x="390" y="280" as="sourcePoint" />
            <mxPoint x="220" y="280" as="targetPoint" />
          </mxGeometry>
        </mxCell>
        <mxCell id="m7PIwRA5SWsUjtvSoGQX-24" value="Данный сотрудник не обладает &lt;br&gt;правом доступа в АРМ" style="edgeLabel;html=1;align=center;verticalAlign=middle;resizable=0;points=[];" vertex="1" connectable="0" parent="m7PIwRA5SWsUjtvSoGQX-23">
          <mxGeometry x="0.2208" y="-1" relative="1" as="geometry">
            <mxPoint x="23" y="-19" as="offset" />
          </mxGeometry>
        </mxCell>
        <mxCell id="m7PIwRA5SWsUjtvSoGQX-25" value="" style="endArrow=classic;html=1;rounded=0;" edge="1" parent="1">
          <mxGeometry width="50" height="50" relative="1" as="geometry">
            <mxPoint x="210" y="300" as="sourcePoint" />
            <mxPoint x="70" y="300" as="targetPoint" />
          </mxGeometry>
        </mxCell>
        <mxCell id="m7PIwRA5SWsUjtvSoGQX-26" value="Запросите доступ у&lt;br&gt;&amp;nbsp;администратора" style="edgeLabel;html=1;align=center;verticalAlign=middle;resizable=0;points=[];" vertex="1" connectable="0" parent="m7PIwRA5SWsUjtvSoGQX-25">
          <mxGeometry x="0.2208" y="-1" relative="1" as="geometry">
            <mxPoint x="15" y="-19" as="offset" />
          </mxGeometry>
        </mxCell>
        <mxCell id="m7PIwRA5SWsUjtvSoGQX-27" value="" style="endArrow=classic;html=1;rounded=0;" edge="1" parent="1">
          <mxGeometry width="50" height="50" relative="1" as="geometry">
            <mxPoint x="390" y="330" as="sourcePoint" />
            <mxPoint x="220" y="330" as="targetPoint" />
          </mxGeometry>
        </mxCell>
        <mxCell id="m7PIwRA5SWsUjtvSoGQX-28" value="Неверный логин или пароль" style="edgeLabel;html=1;align=center;verticalAlign=middle;resizable=0;points=[];" vertex="1" connectable="0" parent="m7PIwRA5SWsUjtvSoGQX-27">
          <mxGeometry x="0.2208" y="-1" relative="1" as="geometry">
            <mxPoint x="23" y="-19" as="offset" />
          </mxGeometry>
        </mxCell>
        <mxCell id="m7PIwRA5SWsUjtvSoGQX-29" value="" style="endArrow=classic;html=1;rounded=0;" edge="1" parent="1">
          <mxGeometry width="50" height="50" relative="1" as="geometry">
            <mxPoint x="210" y="360" as="sourcePoint" />
            <mxPoint x="70" y="360" as="targetPoint" />
          </mxGeometry>
        </mxCell>
        <mxCell id="m7PIwRA5SWsUjtvSoGQX-30" value="Неверно, введите логин&lt;br&gt;и пароль снова" style="edgeLabel;html=1;align=center;verticalAlign=middle;resizable=0;points=[];" vertex="1" connectable="0" parent="m7PIwRA5SWsUjtvSoGQX-29">
          <mxGeometry x="0.2208" y="-1" relative="1" as="geometry">
            <mxPoint x="15" y="-19" as="offset" />
          </mxGeometry>
        </mxCell>
        <mxCell id="m7PIwRA5SWsUjtvSoGQX-31" value="" style="line;strokeWidth=4;direction=south;html=1;perimeter=backbonePerimeter;points=[];outlineConnect=0;rotation=-45;" vertex="1" parent="1">
          <mxGeometry x="60" y="370" width="10" height="50" as="geometry" />
        </mxCell>
        <mxCell id="m7PIwRA5SWsUjtvSoGQX-32" value="" style="line;strokeWidth=4;direction=south;html=1;perimeter=backbonePerimeter;points=[];outlineConnect=0;rotation=45;" vertex="1" parent="1">
          <mxGeometry x="60" y="370" width="10" height="50" as="geometry" />
        </mxCell>
        <mxCell id="m7PIwRA5SWsUjtvSoGQX-33" value="" style="line;strokeWidth=4;direction=south;html=1;perimeter=backbonePerimeter;points=[];outlineConnect=0;rotation=-45;" vertex="1" parent="1">
          <mxGeometry x="210" y="370" width="10" height="50" as="geometry" />
        </mxCell>
        <mxCell id="m7PIwRA5SWsUjtvSoGQX-34" value="" style="line;strokeWidth=4;direction=south;html=1;perimeter=backbonePerimeter;points=[];outlineConnect=0;rotation=45;" vertex="1" parent="1">
          <mxGeometry x="210" y="370" width="10" height="50" as="geometry" />
        </mxCell>
        <mxCell id="m7PIwRA5SWsUjtvSoGQX-35" value="" style="line;strokeWidth=4;direction=south;html=1;perimeter=backbonePerimeter;points=[];outlineConnect=0;rotation=-45;" vertex="1" parent="1">
          <mxGeometry x="390" y="370" width="10" height="50" as="geometry" />
        </mxCell>
        <mxCell id="m7PIwRA5SWsUjtvSoGQX-36" value="" style="line;strokeWidth=4;direction=south;html=1;perimeter=backbonePerimeter;points=[];outlineConnect=0;rotation=45;" vertex="1" parent="1">
          <mxGeometry x="390" y="370" width="10" height="50" as="geometry" />
        </mxCell>
        <mxCell id="m7PIwRA5SWsUjtvSoGQX-37" value="" style="line;strokeWidth=4;direction=south;html=1;perimeter=backbonePerimeter;points=[];outlineConnect=0;rotation=-45;" vertex="1" parent="1">
          <mxGeometry x="570" y="370" width="10" height="50" as="geometry" />
        </mxCell>
        <mxCell id="m7PIwRA5SWsUjtvSoGQX-38" value="" style="line;strokeWidth=4;direction=south;html=1;perimeter=backbonePerimeter;points=[];outlineConnect=0;rotation=45;" vertex="1" parent="1">
          <mxGeometry x="570" y="370" width="10" height="50" as="geometry" />
        </mxCell>
        <mxCell id="m7PIwRA5SWsUjtvSoGQX-41" value="" style="endArrow=none;dashed=1;html=1;rounded=0;exitX=-0.001;exitY=0.341;exitDx=0;exitDy=0;exitPerimeter=0;entryX=1.001;entryY=0.351;entryDx=0;entryDy=0;entryPerimeter=0;" edge="1" parent="1">
          <mxGeometry width="50" height="50" relative="1" as="geometry">
            <mxPoint x="27.999999999999968" y="246.00000000000003" as="sourcePoint" />
            <mxPoint x="619.18" y="247.69999999999996" as="targetPoint" />
          </mxGeometry>
        </mxCell>
        <mxCell id="m7PIwRA5SWsUjtvSoGQX-44" value="&lt;font style=&quot;font-size: 10px;&quot;&gt;Если&lt;/font&gt;" style="text;html=1;strokeColor=none;fillColor=none;align=center;verticalAlign=middle;whiteSpace=wrap;rounded=0;" vertex="1" parent="1">
          <mxGeometry x="18" y="210" width="60" height="30" as="geometry" />
        </mxCell>
        <mxCell id="m7PIwRA5SWsUjtvSoGQX-45" value="&lt;font style=&quot;font-size: 10px;&quot;&gt;Иначе&lt;/font&gt;" style="text;html=1;strokeColor=none;fillColor=none;align=center;verticalAlign=middle;whiteSpace=wrap;rounded=0;" vertex="1" parent="1">
          <mxGeometry x="17" y="240" width="62" height="30" as="geometry" />
        </mxCell>
      </root>
    </mxGraphModel>
  </diagram>
</mxfile>
